<?xml version="1.0" encoding="UTF-8" standalone="no"?>
<!-- Created with Inkscape (http://www.inkscape.org/) -->

<svg
   width="135mm"
   height="100.00001mm"
   viewBox="0 0 135 100.00001"
   version="1.1"
   id="svg1"
   inkscape:version="1.3 (0e150ed6c4, 2023-07-21)"
   sodipodi:docname="list-selection-icon.svg"
   xmlns:inkscape="http://www.inkscape.org/namespaces/inkscape"
   xmlns:sodipodi="http://sodipodi.sourceforge.net/DTD/sodipodi-0.dtd"
   xmlns="http://www.w3.org/2000/svg"
   xmlns:svg="http://www.w3.org/2000/svg">
  <sodipodi:namedview
     id="namedview1"
     pagecolor="#ffffff"
     bordercolor="#000000"
     borderopacity="0.25"
     inkscape:showpageshadow="2"
     inkscape:pageopacity="0.0"
     inkscape:pagecheckerboard="true"
     inkscape:deskcolor="#d1d1d1"
     inkscape:document-units="mm"
     showborder="false"
     inkscape:zoom="1.2132034"
     inkscape:cx="265.82516"
     inkscape:cy="218.01785"
     inkscape:window-width="1920"
     inkscape:window-height="1009"
     inkscape:window-x="-8"
     inkscape:window-y="-8"
     inkscape:window-maximized="1"
     inkscape:current-layer="layer1" />
  <defs
     id="defs1">
    <inkscape:path-effect
       effect="powerstroke"
       id="path-effect23"
       is_visible="true"
       lpeversion="1.3"
       scale_width="1"
       interpolator_type="CubicBezierJohan"
       interpolator_beta="0.2"
       start_linecap_type="zerowidth"
       end_linecap_type="zerowidth"
       offset_points="4,4.9921382"
       linejoin_type="extrp_arc"
       miter_limit="4"
       not_jump="false"
       sort_points="true"
       message="&lt;b&gt;Ctrl + click&lt;/b&gt; on existing node and move it" />
    <inkscape:path-effect
       effect="powerstroke"
       id="path-effect1"
       is_visible="true"
       lpeversion="1.3"
       scale_width="1"
       interpolator_type="CubicBezierJohan"
       interpolator_beta="0.2"
       start_linecap_type="zerowidth"
       end_linecap_type="zerowidth"
       offset_points="3,4.9921382"
       linejoin_type="extrp_arc"
       miter_limit="4"
       not_jump="false"
       sort_points="true"
       message="&lt;b&gt;Ctrl + click&lt;/b&gt; on existing node and move it" />
    <inkscape:path-effect
       effect="fill_between_many"
       method="bsplinespiro"
       autoreverse="false"
       close="false"
       join="false"
       linkedpaths="#path1,0,1"
       id="path-effect2" />
    <inkscape:path-effect
       effect="fill_between_many"
       method="bsplinespiro"
       autoreverse="false"
       close="false"
       join="false"
       linkedpaths="#path23,0,1"
       id="path-effect24" />
  </defs>
  <g
     inkscape:label="Layer 1"
     inkscape:groupmode="layer"
     id="layer1"
     transform="translate(-6.3499999,-46.566666)">
    <rect
       style="fill:#f8fafc;fill-opacity:1;stroke-width:0.256494"
       id="rect3"
       width="60"
       height="20"
       x="6.3499999"
       y="46.566666"
       rx="3.4285715" />
    <rect
       style="fill:#f8fafc;fill-opacity:1;stroke-width:0.24697"
       id="rect4"
       width="25"
       height="20"
       x="6.3499999"
       y="86.566666"
       rx="3.3333333" />
    <rect
       style="fill:#f8fafc;fill-opacity:1;stroke-width:0.271715"
       id="rect5"
       width="60"
       height="20"
       x="6.3499999"
       y="126.56667"
       rx="3.4285715" />
    <g
       id="SVGRepo_iconCarrier"
       transform="matrix(0,-3.278796,3.3702816,0,42.347978,149.02576)"
       style="fill:#f8fafc;fill-opacity:1">
      <title
         id="title1">triangle</title>
      <path
         d="M 31.082,27.5 17.083,3.251 C 16.846,2.899 16.45,2.671 16,2.671 c -0.45,0 -0.846,0.228 -1.08,0.575 l -0.003,0.005 -14,24.249 c -0.105,0.179 -0.167,0.395 -0.167,0.625 0,0.69 0.56,1.25 1.25,1.25 0,0 0,0 0,0 h 28 c 0.69,0 1.249,-0.56 1.249,-1.25 0,-0.23 -0.062,-0.446 -0.171,-0.631 L 31.081,27.5 Z M 4.165,26.875 16,6.376 27.834,26.875 Z"
         id="path1"
         style="fill:#f8fafc;fill-opacity:1" />
    </g>
    <path
       inkscape:original-d="M 0,0"
       inkscape:path-effect="#path-effect24"
       d="m 136.50363,52.426664 0.15421,88.208386 v 0 L 57.547874,95.297174 Z"
       id="path24"
       style="fill:#f8fafc" />
    <path
       style="fill:#f8fafc;fill-opacity:1;fill-rule:nonzero;stroke:none;stroke-width:0.264583"
       d="m 136.37134,52.426895 c 0.0274,15.698218 0.0892,51.035075 0.15381,87.979635 C 107.95822,124.03484 78.131615,106.94123 57.819373,95.300293 88.602497,78.586018 123.4371,59.671918 136.56676,52.542923 Z m 0.0692,-0.11649 C 123.28121,59.45549 88.31889,78.438939 57.484749,95.180915 a 0.1322915,0.1322915 45.609438 0 0 -0.0027,0.231037 C 77.798338,107.05518 107.7294,124.20865 136.59206,140.74983 a 0.13229267,0.13230061 14.857557 0 0 0.19807,-0.11503 c -0.0647,-37.02737 -0.12671,-72.477755 -0.15421,-88.208367 z"
       id="path23"
       inkscape:path-effect="#path-effect23"
       inkscape:original-d="m 136.50363,52.426664 0.15421,88.208386 v 0 L 57.547874,95.297174 Z"
       inkscape:linked-fill="path24" />
  </g>
</svg>
